<svg width="686" height="597" viewBox="0 0 686 597" fill="none" xmlns="http://www.w3.org/2000/svg">
<g clip-path="url(#clip0_923_1554)">
<path d="M617.991 310.688C618.081 384.561 589.527 455.591 538.333 508.848C535.246 512.079 532.077 515.233 528.824 518.308C523.868 523.023 518.745 527.554 513.456 531.903C463.979 572.667 402.211 595.573 338.118 596.928C335.983 596.976 333.839 597 331.688 597C280.572 597 216.281 569.698 157.938 531.903C153.111 528.776 148.326 525.577 143.585 522.306C141.369 520.791 139.164 519.254 136.969 517.696C114.467 501.807 93.1076 484.357 73.049 465.477C59.9159 453.151 47.6005 439.983 36.1812 426.054C-8.64841 370.757 -18.5362 320.931 45.376 310.688C52.943 309.48 60.287 308.188 67.408 306.812C77.723 304.83 87.5947 302.689 97.0231 300.39C109.723 297.303 121.655 293.956 132.819 290.349C136.574 289.14 140.244 287.907 143.827 286.65C196.804 268.043 232.262 243.778 256.397 217.451C260.491 212.995 264.265 208.485 267.719 203.921C273.004 196.974 277.805 189.672 282.087 182.066C287.998 171.498 292.963 160.428 296.923 148.986L297.141 148.357C316.344 92.9629 310.502 41.5817 331.688 24.3848C422.25 -49.1332 534.997 55.5632 587.917 179.028C590.584 185.249 593.093 191.508 595.444 197.804C596.499 200.617 597.517 203.435 598.498 206.258C601.076 213.615 603.416 220.991 605.517 228.387C606.323 231.207 607.091 234.025 607.821 236.84C608.603 239.878 609.353 242.908 610.046 245.938C615.195 268.123 617.991 290.002 617.991 310.688Z" fill="#E4FFEA"/>
<path d="M338.118 596.927C335.983 596.976 333.839 597 331.687 597C280.572 597 216.281 569.698 157.937 531.903C153.11 528.776 148.326 525.577 143.585 522.305L147.743 497.002L273.626 480.288L336.805 528.599L338.118 596.927Z" fill="#2F2E41"/>
<path d="M344.178 145.094H326.24C325.684 145.094 325.152 145.315 324.759 145.707C324.366 146.1 324.145 146.633 324.145 147.189V165.135C324.145 165.41 324.199 165.682 324.305 165.935C324.41 166.189 324.565 166.419 324.759 166.613C324.954 166.807 325.185 166.96 325.439 167.065C325.693 167.17 325.965 167.223 326.24 167.222H344.178C344.733 167.222 345.264 167.003 345.657 166.612C346.05 166.22 346.271 165.689 346.273 165.135V147.189C346.272 146.633 346.051 146.101 345.658 145.709C345.265 145.316 344.733 145.095 344.178 145.094V145.094Z" fill="white"/>
<path d="M344.178 175.676H326.24C325.684 175.676 325.152 175.897 324.759 176.289C324.366 176.682 324.145 177.215 324.145 177.771V195.717C324.145 195.992 324.199 196.264 324.305 196.517C324.41 196.771 324.565 197.001 324.759 197.195C324.954 197.389 325.185 197.543 325.439 197.647C325.693 197.752 325.965 197.805 326.24 197.804H344.178C344.732 197.804 345.264 197.585 345.657 197.194C346.05 196.802 346.271 196.271 346.273 195.717V177.771C346.272 177.216 346.051 176.684 345.658 176.291C345.265 175.898 344.733 175.677 344.178 175.676Z" fill="#E6E6E6"/>
<path d="M344.178 206.258H326.24C325.684 206.258 325.151 206.479 324.759 206.872C324.366 207.265 324.145 207.798 324.145 208.353V226.291C324.144 226.567 324.198 226.839 324.303 227.094C324.408 227.348 324.563 227.579 324.757 227.774C324.952 227.969 325.183 228.123 325.437 228.228C325.692 228.333 325.965 228.387 326.24 228.387H344.178C344.734 228.386 345.267 228.165 345.659 227.773C346.052 227.38 346.273 226.847 346.273 226.291V208.353C346.272 207.798 346.051 207.266 345.658 206.873C345.265 206.481 344.733 206.259 344.178 206.258V206.258Z" fill="#E6E6E6"/>
<path d="M346.241 238.564C346.152 238.082 345.897 237.646 345.52 237.331C345.144 237.016 344.669 236.842 344.178 236.84H326.24C325.684 236.84 325.152 237.061 324.759 237.454C324.366 237.847 324.145 238.38 324.145 238.935V256.873C324.144 257.149 324.198 257.421 324.303 257.676C324.408 257.93 324.562 258.162 324.757 258.356C324.952 258.551 325.183 258.705 325.437 258.81C325.692 258.915 325.965 258.969 326.24 258.969H344.178C344.734 258.968 345.267 258.748 345.659 258.355C346.052 257.962 346.273 257.429 346.273 256.873V238.935C346.275 238.811 346.264 238.687 346.241 238.564V238.564Z" fill="#E6E6E6"/>
<path d="M344.992 267.583C344.734 267.476 344.457 267.422 344.178 267.422H326.24C325.965 267.421 325.692 267.475 325.437 267.58C325.183 267.685 324.952 267.84 324.757 268.034C324.562 268.229 324.408 268.46 324.303 268.715C324.198 268.969 324.144 269.242 324.145 269.517V287.455C324.144 287.731 324.197 288.004 324.302 288.259C324.407 288.513 324.561 288.745 324.756 288.94C324.95 289.135 325.182 289.289 325.437 289.394C325.691 289.499 325.964 289.552 326.24 289.551H344.178C344.734 289.55 345.267 289.33 345.659 288.937C346.052 288.544 346.273 288.011 346.273 287.455V269.517C346.272 269.105 346.151 268.702 345.923 268.358C345.695 268.014 345.371 267.745 344.992 267.583Z" fill="#E6E6E6"/>
<path d="M381.86 145.094H363.922C363.366 145.094 362.833 145.315 362.44 145.707C362.047 146.1 361.827 146.633 361.826 147.189V165.135C361.827 165.41 361.881 165.682 361.987 165.935C362.092 166.189 362.247 166.419 362.441 166.613C362.636 166.807 362.867 166.96 363.121 167.065C363.375 167.17 363.647 167.223 363.922 167.222H381.86C382.414 167.222 382.946 167.003 383.339 166.612C383.732 166.22 383.953 165.689 383.955 165.135V147.189C383.953 146.633 383.732 146.101 383.34 145.709C382.947 145.316 382.415 145.095 381.86 145.094V145.094Z" fill="#E6E6E6"/>
<path d="M381.86 175.676H363.922C363.366 175.676 362.833 175.897 362.44 176.289C362.047 176.682 361.827 177.215 361.826 177.771V195.717C361.827 195.992 361.881 196.264 361.987 196.517C362.092 196.771 362.247 197.001 362.441 197.195C362.636 197.389 362.867 197.543 363.121 197.647C363.375 197.752 363.647 197.805 363.922 197.804H381.86C382.414 197.804 382.946 197.585 383.339 197.194C383.732 196.802 383.953 196.271 383.955 195.717V177.771C383.953 177.216 383.732 176.684 383.34 176.291C382.947 175.898 382.415 175.677 381.86 175.676Z" fill="#22F119"/>
<path d="M381.86 206.258H363.922C363.366 206.258 362.833 206.479 362.44 206.872C362.047 207.265 361.827 207.798 361.826 208.353V226.291C361.826 226.567 361.88 226.839 361.985 227.094C362.09 227.348 362.244 227.579 362.439 227.774C362.633 227.969 362.865 228.123 363.119 228.228C363.374 228.333 363.646 228.387 363.922 228.387H381.86C382.415 228.386 382.948 228.165 383.341 227.773C383.734 227.38 383.955 226.847 383.955 226.291V208.353C383.953 207.798 383.732 207.266 383.34 206.873C382.947 206.481 382.415 206.259 381.86 206.258V206.258Z" fill="#22F119"/>
<path d="M381.86 236.84H363.922C363.482 236.84 363.054 236.979 362.698 237.236C362.342 237.494 362.077 237.857 361.939 238.274C361.865 238.487 361.826 238.71 361.826 238.935V256.873C361.826 257.149 361.88 257.421 361.985 257.676C362.09 257.93 362.244 258.161 362.439 258.356C362.633 258.551 362.865 258.705 363.119 258.81C363.374 258.915 363.646 258.969 363.922 258.969H381.86C382.415 258.968 382.948 258.748 383.341 258.355C383.734 257.962 383.955 257.429 383.955 256.873V238.935C383.953 238.38 383.732 237.848 383.34 237.455C382.947 237.063 382.415 236.841 381.86 236.84V236.84Z" fill="#22F119"/>
<path d="M381.86 267.422H363.922C363.646 267.421 363.374 267.475 363.119 267.58C362.865 267.685 362.633 267.84 362.439 268.034C362.244 268.229 362.09 268.46 361.985 268.715C361.88 268.969 361.826 269.242 361.826 269.517V287.455C361.826 287.731 361.88 288.003 361.985 288.258C362.09 288.512 362.244 288.744 362.439 288.938C362.633 289.133 362.865 289.287 363.119 289.392C363.374 289.497 363.646 289.551 363.922 289.551H381.86C382.415 289.55 382.948 289.33 383.341 288.937C383.734 288.544 383.955 288.011 383.955 287.455V269.517C383.955 268.961 383.734 268.429 383.341 268.036C382.948 267.643 382.415 267.422 381.86 267.422V267.422Z" fill="#E6E6E6"/>
<path d="M419.542 145.094H401.603C401.048 145.094 400.515 145.315 400.122 145.707C399.729 146.1 399.509 146.633 399.508 147.189V165.135C399.509 165.41 399.563 165.682 399.668 165.935C399.774 166.189 399.928 166.419 400.123 166.613C400.318 166.807 400.549 166.96 400.803 167.065C401.057 167.17 401.329 167.223 401.603 167.222H419.542C420.096 167.222 420.628 167.003 421.021 166.612C421.413 166.22 421.635 165.689 421.637 165.135V147.189C421.635 146.633 421.414 146.101 421.021 145.709C420.629 145.316 420.097 145.095 419.542 145.094V145.094Z" fill="#22F119"/>
<path d="M419.542 175.676H401.603C401.048 175.676 400.515 175.897 400.122 176.289C399.729 176.682 399.509 177.215 399.508 177.771V195.717C399.509 195.992 399.563 196.264 399.668 196.517C399.774 196.771 399.928 197.001 400.123 197.195C400.318 197.389 400.549 197.543 400.803 197.647C401.057 197.752 401.329 197.805 401.603 197.804H419.542C420.096 197.804 420.628 197.585 421.021 197.194C421.413 196.802 421.635 196.271 421.637 195.717V177.771C421.635 177.216 421.414 176.684 421.021 176.291C420.629 175.898 420.097 175.677 419.542 175.676Z" fill="#22F119"/>
<path d="M419.542 206.258H401.603C401.048 206.258 400.515 206.479 400.122 206.872C399.729 207.265 399.509 207.798 399.508 208.353V226.291C399.508 226.567 399.562 226.839 399.667 227.094C399.772 227.348 399.926 227.579 400.121 227.774C400.315 227.969 400.547 228.123 400.801 228.228C401.055 228.333 401.328 228.387 401.603 228.387H419.542C420.097 228.386 420.63 228.165 421.023 227.773C421.416 227.38 421.637 226.847 421.637 226.291V208.353C421.635 207.798 421.414 207.266 421.022 206.873C420.629 206.481 420.097 206.259 419.542 206.258V206.258Z" fill="#E6E6E6"/>
<path d="M419.542 236.84H401.603C401.048 236.84 400.515 237.061 400.122 237.454C399.729 237.847 399.509 238.38 399.508 238.935V256.873C399.508 257.149 399.562 257.421 399.667 257.676C399.772 257.93 399.926 258.162 400.121 258.356C400.315 258.551 400.547 258.705 400.801 258.81C401.055 258.915 401.328 258.969 401.603 258.969H419.542C420.097 258.968 420.63 258.748 421.023 258.355C421.416 257.962 421.637 257.429 421.637 256.873V238.935C421.635 238.38 421.414 237.848 421.022 237.455C420.629 237.063 420.097 236.841 419.542 236.84V236.84Z" fill="#22F119"/>
<path d="M419.542 267.422H401.603C401.328 267.421 401.055 267.475 400.801 267.58C400.547 267.685 400.315 267.84 400.121 268.034C399.926 268.229 399.772 268.46 399.667 268.715C399.562 268.969 399.508 269.242 399.508 269.517V287.455C399.508 287.731 399.562 288.003 399.667 288.258C399.772 288.512 399.926 288.744 400.121 288.938C400.315 289.133 400.547 289.287 400.801 289.392C401.055 289.497 401.328 289.551 401.603 289.551H419.542C420.097 289.55 420.63 289.33 421.023 288.937C421.416 288.544 421.637 288.011 421.637 287.455V269.517C421.637 268.961 421.416 268.429 421.023 268.036C420.63 267.643 420.097 267.422 419.542 267.422V267.422Z" fill="#22F119"/>
<path d="M457.223 145.094H439.285C438.73 145.094 438.197 145.315 437.804 145.707C437.411 146.1 437.19 146.633 437.19 147.189V165.135C437.19 165.41 437.245 165.682 437.35 165.935C437.456 166.189 437.61 166.419 437.805 166.613C437.999 166.807 438.23 166.961 438.484 167.065C438.738 167.17 439.01 167.223 439.285 167.222H457.223C457.778 167.222 458.31 167.003 458.702 166.612C459.095 166.22 459.317 165.689 459.319 165.135V147.189C459.317 146.633 459.096 146.101 458.703 145.709C458.311 145.316 457.779 145.095 457.223 145.094V145.094Z" fill="#22F119"/>
<path d="M457.223 175.676H439.285C438.73 175.676 438.197 175.897 437.804 176.289C437.411 176.682 437.19 177.215 437.19 177.771V195.717C437.19 195.992 437.245 196.264 437.35 196.517C437.456 196.771 437.61 197.001 437.805 197.195C437.999 197.389 438.23 197.543 438.484 197.647C438.738 197.752 439.01 197.805 439.285 197.804H457.223C457.778 197.804 458.31 197.585 458.702 197.194C459.095 196.802 459.317 196.271 459.319 195.717V177.771C459.317 177.216 459.096 176.684 458.703 176.291C458.311 175.898 457.779 175.677 457.223 175.676V175.676Z" fill="white"/>
<path d="M457.223 206.258H439.285C438.73 206.258 438.197 206.479 437.804 206.872C437.411 207.265 437.19 207.797 437.19 208.353V226.291C437.189 226.567 437.243 226.839 437.348 227.094C437.453 227.348 437.608 227.579 437.802 227.774C437.997 227.969 438.228 228.123 438.483 228.228C438.737 228.333 439.01 228.387 439.285 228.387H457.223C457.779 228.386 458.312 228.165 458.705 227.773C459.098 227.38 459.318 226.847 459.319 226.291V208.353C459.317 207.798 459.096 207.266 458.703 206.873C458.311 206.481 457.779 206.259 457.223 206.258V206.258Z" fill="white"/>
<path d="M457.223 236.84H439.285C438.73 236.84 438.197 237.061 437.804 237.454C437.411 237.847 437.19 238.38 437.19 238.935V256.873C437.189 257.149 437.243 257.421 437.348 257.676C437.453 257.93 437.608 258.162 437.802 258.356C437.997 258.551 438.228 258.705 438.483 258.81C438.737 258.915 439.01 258.969 439.285 258.969H457.223C457.779 258.968 458.312 258.748 458.705 258.355C459.098 257.962 459.318 257.429 459.319 256.873V238.935C459.317 238.38 459.096 237.848 458.703 237.455C458.311 237.063 457.779 236.841 457.223 236.84V236.84Z" fill="#E6E6E6"/>
<path d="M457.223 267.422H439.285C439.01 267.421 438.737 267.475 438.483 267.58C438.228 267.685 437.997 267.84 437.802 268.034C437.608 268.229 437.453 268.46 437.348 268.715C437.243 268.969 437.189 269.242 437.19 269.517V287.455C437.189 287.731 437.243 288.003 437.348 288.258C437.453 288.512 437.608 288.744 437.802 288.938C437.997 289.133 438.228 289.287 438.483 289.392C438.737 289.497 439.01 289.551 439.285 289.551H457.223C457.779 289.55 458.312 289.33 458.705 288.937C459.098 288.544 459.318 288.011 459.319 287.455V269.517C459.318 268.961 459.098 268.429 458.705 268.036C458.312 267.643 457.779 267.422 457.223 267.422V267.422Z" fill="#22F119"/>
<path d="M494.905 145.094H476.959C476.404 145.095 475.873 145.317 475.482 145.71C475.091 146.102 474.871 146.634 474.872 147.189V165.135C474.872 165.688 475.092 166.219 475.483 166.611C475.874 167.002 476.405 167.222 476.959 167.222H494.905C495.46 167.222 495.991 167.003 496.384 166.612C496.777 166.22 496.998 165.689 497 165.135V147.189C496.999 146.633 496.777 146.101 496.385 145.709C495.992 145.316 495.46 145.095 494.905 145.094Z" fill="white"/>
<path d="M494.905 175.676H476.959C476.404 175.677 475.873 175.899 475.482 176.292C475.091 176.685 474.871 177.216 474.872 177.771V195.717C474.872 196.271 475.092 196.801 475.483 197.193C475.874 197.584 476.405 197.804 476.959 197.804H494.905C495.46 197.804 495.991 197.585 496.384 197.194C496.777 196.802 496.998 196.271 497 195.717V177.771C496.999 177.216 496.778 176.684 496.385 176.291C495.992 175.898 495.46 175.677 494.905 175.676V175.676Z" fill="white"/>
<path d="M494.905 206.258H476.959C476.404 206.26 475.873 206.481 475.482 206.874C475.091 207.267 474.871 207.799 474.872 208.353V226.291C474.871 226.566 474.924 226.838 475.029 227.092C475.133 227.346 475.287 227.577 475.481 227.772C475.675 227.966 475.905 228.121 476.159 228.226C476.412 228.332 476.684 228.386 476.959 228.387H494.905C495.461 228.386 495.994 228.165 496.386 227.773C496.779 227.38 497 226.847 497 226.291V208.353C496.999 207.798 496.778 207.266 496.385 206.873C495.992 206.481 495.46 206.259 494.905 206.258V206.258Z" fill="white"/>
<path d="M494.905 236.84H476.959C476.404 236.842 475.873 237.063 475.482 237.456C475.091 237.849 474.871 238.381 474.872 238.935V256.873C474.871 257.148 474.924 257.42 475.029 257.674C475.133 257.928 475.287 258.159 475.481 258.354C475.675 258.548 475.905 258.703 476.159 258.808C476.412 258.914 476.684 258.968 476.959 258.969H494.905C495.461 258.968 495.994 258.748 496.386 258.355C496.779 257.962 497 257.429 497 256.873V238.935C496.999 238.38 496.778 237.848 496.385 237.455C495.992 237.063 495.46 236.841 494.905 236.84V236.84Z" fill="#22F119"/>
<path d="M494.905 267.422H476.959C476.684 267.422 476.412 267.477 476.159 267.582C475.905 267.688 475.675 267.842 475.481 268.037C475.287 268.231 475.133 268.462 475.029 268.716C474.924 268.97 474.871 269.242 474.872 269.517V287.455C474.871 287.73 474.924 288.002 475.029 288.256C475.133 288.51 475.287 288.741 475.481 288.936C475.675 289.13 475.905 289.285 476.159 289.39C476.412 289.496 476.684 289.55 476.959 289.551H494.905C495.461 289.55 495.994 289.33 496.386 288.937C496.779 288.544 497 288.011 497 287.455V269.517C497 268.961 496.779 268.429 496.386 268.036C495.994 267.643 495.461 267.422 494.905 267.422V267.422Z" fill="#E6E6E6"/>
<path d="M532.587 145.094H514.64C514.086 145.095 513.555 145.317 513.164 145.71C512.773 146.102 512.553 146.634 512.553 147.189V165.135C512.553 165.688 512.773 166.219 513.165 166.611C513.556 167.002 514.087 167.222 514.64 167.222H532.587C533.141 167.222 533.673 167.003 534.066 166.612C534.458 166.22 534.68 165.689 534.682 165.135V147.189C534.68 146.633 534.459 146.101 534.066 145.709C533.674 145.316 533.142 145.095 532.587 145.094V145.094Z" fill="white"/>
<path d="M532.587 175.676H514.64C514.086 175.677 513.555 175.899 513.164 176.292C512.772 176.685 512.553 177.216 512.553 177.771V195.717C512.553 196.271 512.773 196.801 513.165 197.193C513.556 197.584 514.087 197.804 514.64 197.804H532.587C533.141 197.804 533.673 197.585 534.066 197.194C534.458 196.802 534.68 196.271 534.682 195.717V177.771C534.68 177.216 534.459 176.684 534.066 176.291C533.674 175.898 533.142 175.677 532.587 175.676V175.676Z" fill="white"/>
<path d="M532.587 206.258H514.64C514.086 206.26 513.555 206.481 513.164 206.874C512.772 207.267 512.553 207.799 512.553 208.353V226.291C512.552 226.566 512.606 226.838 512.71 227.092C512.815 227.346 512.968 227.577 513.162 227.772C513.356 227.966 513.586 228.121 513.84 228.226C514.094 228.332 514.366 228.386 514.64 228.387H532.587C533.142 228.386 533.675 228.165 534.068 227.773C534.461 227.38 534.682 226.847 534.682 226.291V208.353C534.68 207.798 534.459 207.266 534.066 206.873C533.674 206.481 533.142 206.259 532.587 206.258V206.258Z" fill="#22F119"/>
<path d="M532.587 236.84H514.64C514.086 236.842 513.555 237.063 513.164 237.456C512.773 237.849 512.553 238.381 512.553 238.935V256.873C512.552 257.148 512.606 257.42 512.71 257.674C512.815 257.928 512.968 258.159 513.162 258.354C513.356 258.548 513.586 258.703 513.84 258.808C514.094 258.914 514.366 258.968 514.64 258.969H532.587C533.142 258.968 533.675 258.748 534.068 258.355C534.461 257.962 534.682 257.429 534.682 256.873V238.935C534.68 238.38 534.459 237.848 534.066 237.455C533.674 237.063 533.142 236.842 532.587 236.84V236.84Z" fill="#E6E6E6"/>
<path d="M532.587 267.422H514.64C514.366 267.422 514.094 267.477 513.84 267.582C513.586 267.688 513.356 267.842 513.162 268.037C512.968 268.231 512.815 268.462 512.71 268.716C512.606 268.97 512.552 269.242 512.553 269.517V287.455C512.552 287.73 512.606 288.002 512.71 288.256C512.815 288.51 512.968 288.741 513.162 288.936C513.356 289.13 513.586 289.285 513.84 289.39C514.094 289.496 514.366 289.55 514.64 289.551H532.587C533.142 289.55 533.675 289.33 534.068 288.937C534.461 288.544 534.682 288.011 534.682 287.455V269.517C534.682 268.961 534.461 268.429 534.068 268.036C533.675 267.643 533.142 267.422 532.587 267.422Z" fill="white"/>
<path d="M570.269 145.094H552.322C551.768 145.095 551.237 145.317 550.846 145.71C550.455 146.102 550.235 146.634 550.235 147.189V165.135C550.235 165.688 550.455 166.219 550.847 166.611C551.238 167.002 551.769 167.222 552.322 167.222H570.269C570.823 167.222 571.355 167.003 571.748 166.612C572.14 166.22 572.362 165.689 572.364 165.135V147.189C572.362 146.633 572.141 146.101 571.748 145.709C571.356 145.316 570.824 145.095 570.269 145.094V145.094Z" fill="#22F119"/>
<path d="M570.269 175.676H552.322C551.768 175.677 551.237 175.899 550.846 176.292C550.455 176.685 550.235 177.216 550.235 177.771V195.717C550.235 196.271 550.455 196.801 550.847 197.193C551.238 197.584 551.769 197.804 552.322 197.804H570.269C570.823 197.804 571.355 197.585 571.748 197.194C572.14 196.802 572.362 196.271 572.364 195.717V177.771C572.362 177.216 572.141 176.684 571.749 176.291C571.356 175.898 570.824 175.677 570.269 175.676Z" fill="#22F119"/>
<path d="M570.269 206.258H552.322C551.768 206.26 551.237 206.481 550.846 206.874C550.455 207.267 550.235 207.799 550.235 208.353V226.291C550.234 226.566 550.288 226.838 550.392 227.092C550.497 227.346 550.65 227.577 550.844 227.772C551.038 227.966 551.269 228.121 551.522 228.226C551.776 228.332 552.048 228.386 552.322 228.387H570.269C570.824 228.386 571.357 228.165 571.75 227.773C572.143 227.38 572.364 226.847 572.364 226.291V208.353C572.362 207.798 572.141 207.266 571.749 206.873C571.356 206.481 570.824 206.259 570.269 206.258V206.258Z" fill="#E6E6E6"/>
<path d="M570.269 236.84H552.322C551.768 236.842 551.237 237.063 550.846 237.456C550.455 237.849 550.235 238.381 550.235 238.935V256.873C550.234 257.148 550.288 257.42 550.392 257.674C550.497 257.928 550.65 258.159 550.844 258.354C551.038 258.548 551.269 258.703 551.522 258.808C551.776 258.914 552.048 258.968 552.322 258.969H570.269C570.824 258.968 571.357 258.748 571.75 258.355C572.143 257.962 572.364 257.429 572.364 256.873V238.935C572.362 238.38 572.141 237.848 571.749 237.455C571.356 237.063 570.824 236.842 570.269 236.84V236.84Z" fill="white"/>
<path d="M570.269 267.422H552.322C552.048 267.422 551.776 267.477 551.522 267.582C551.269 267.688 551.038 267.842 550.844 268.037C550.65 268.231 550.497 268.462 550.392 268.716C550.288 268.97 550.234 269.242 550.235 269.517V287.455C550.234 287.73 550.288 288.002 550.392 288.256C550.497 288.51 550.65 288.741 550.844 288.936C551.038 289.13 551.269 289.285 551.522 289.39C551.776 289.496 552.048 289.55 552.322 289.551H570.269C570.824 289.55 571.357 289.33 571.75 288.937C572.143 288.544 572.364 288.011 572.364 287.455V269.517C572.364 268.961 572.143 268.429 571.75 268.036C571.357 267.643 570.824 267.422 570.269 267.422Z" fill="#22F119"/>
<path d="M607.95 145.094H590.004C589.45 145.095 588.919 145.317 588.527 145.71C588.136 146.102 587.917 146.634 587.917 147.189V165.135C587.917 165.688 588.137 166.219 588.528 166.611C588.92 167.002 589.45 167.222 590.004 167.222H607.95C608.505 167.222 609.036 167.003 609.429 166.612C609.822 166.22 610.044 165.689 610.045 165.135V147.189C610.044 146.633 609.823 146.101 609.43 145.709C609.037 145.316 608.505 145.095 607.95 145.094Z" fill="#22F119"/>
<path d="M607.95 175.676H590.004C589.45 175.677 588.919 175.899 588.527 176.292C588.136 176.685 587.917 177.216 587.917 177.771V195.717C587.917 196.271 588.137 196.801 588.528 197.193C588.92 197.584 589.45 197.804 590.004 197.804H607.95C608.505 197.804 609.036 197.585 609.429 197.194C609.822 196.802 610.044 196.271 610.045 195.717V177.771C610.044 177.216 609.823 176.684 609.43 176.291C609.037 175.898 608.505 175.677 607.95 175.676V175.676Z" fill="#22F119"/>
<path d="M607.95 206.258H590.004C589.45 206.26 588.919 206.481 588.527 206.874C588.136 207.267 587.917 207.799 587.917 208.353V226.291C587.916 226.566 587.969 226.838 588.074 227.092C588.178 227.346 588.332 227.577 588.526 227.772C588.72 227.966 588.95 228.121 589.204 228.226C589.457 228.332 589.729 228.386 590.004 228.387H607.95C608.506 228.386 609.039 228.165 609.431 227.773C609.824 227.38 610.045 226.847 610.046 226.291V208.353C610.044 207.798 609.823 207.266 609.43 206.873C609.037 206.481 608.505 206.259 607.95 206.258Z" fill="#E6E6E6"/>
<path d="M607.95 236.84H590.004C589.45 236.842 588.919 237.063 588.527 237.456C588.136 237.849 587.917 238.381 587.917 238.935V256.873C587.916 257.148 587.969 257.42 588.074 257.674C588.178 257.928 588.332 258.159 588.526 258.354C588.72 258.548 588.95 258.703 589.204 258.808C589.457 258.914 589.729 258.968 590.004 258.969H607.95C608.506 258.968 609.039 258.748 609.432 258.355C609.824 257.962 610.045 257.429 610.046 256.873V238.935C610.044 238.38 609.823 237.848 609.43 237.455C609.037 237.063 608.505 236.842 607.95 236.84V236.84Z" fill="#22F119"/>
<path d="M607.95 267.422H590.004C589.729 267.422 589.457 267.477 589.204 267.582C588.95 267.688 588.72 267.842 588.526 268.037C588.332 268.231 588.178 268.462 588.074 268.716C587.969 268.97 587.916 269.242 587.917 269.517V287.455C587.916 287.73 587.969 288.002 588.074 288.256C588.178 288.51 588.332 288.741 588.526 288.936C588.72 289.13 588.95 289.285 589.204 289.39C589.457 289.496 589.729 289.55 590.004 289.551H607.95C608.506 289.55 609.039 289.33 609.432 288.937C609.824 288.544 610.045 288.011 610.046 287.455V269.517C610.045 268.961 609.824 268.429 609.432 268.036C609.039 267.643 608.506 267.422 607.95 267.422V267.422Z" fill="#22F119"/>
<path d="M645.632 145.094H627.686C627.131 145.095 626.6 145.317 626.209 145.71C625.818 146.102 625.598 146.634 625.598 147.189V165.135C625.598 165.688 625.818 166.219 626.21 166.611C626.601 167.002 627.132 167.222 627.686 167.222H645.632C646.186 167.222 646.718 167.003 647.111 166.612C647.504 166.22 647.725 165.689 647.727 165.135V147.189C647.725 146.633 647.504 146.101 647.112 145.709C646.719 145.316 646.187 145.095 645.632 145.094V145.094Z" fill="#E6E6E6"/>
<path d="M645.632 175.676H627.686C627.131 175.677 626.6 175.899 626.209 176.292C625.818 176.685 625.598 177.216 625.598 177.771V195.717C625.598 196.271 625.818 196.801 626.21 197.193C626.601 197.584 627.132 197.804 627.686 197.804H645.632C646.186 197.804 646.718 197.585 647.111 197.194C647.504 196.802 647.725 196.271 647.727 195.717V177.771C647.725 177.216 647.504 176.684 647.112 176.291C646.719 175.898 646.187 175.677 645.632 175.676V175.676Z" fill="#22F119"/>
<path d="M645.632 206.258H627.686C627.131 206.26 626.6 206.481 626.209 206.874C625.818 207.267 625.598 207.799 625.598 208.353V226.291C625.598 226.566 625.651 226.838 625.756 227.092C625.86 227.346 626.014 227.577 626.208 227.772C626.401 227.966 626.632 228.121 626.885 228.226C627.139 228.332 627.411 228.386 627.686 228.387H645.632C646.187 228.386 646.72 228.165 647.113 227.773C647.506 227.38 647.727 226.847 647.727 226.291V208.353C647.725 207.798 647.504 207.266 647.112 206.873C646.719 206.481 646.187 206.259 645.632 206.258V206.258Z" fill="#22F119"/>
<path d="M645.632 236.84H627.686C627.131 236.842 626.6 237.063 626.209 237.456C625.818 237.849 625.598 238.381 625.598 238.935V256.873C625.598 257.148 625.651 257.42 625.756 257.674C625.86 257.928 626.014 258.159 626.208 258.354C626.401 258.548 626.632 258.703 626.885 258.808C627.139 258.914 627.411 258.968 627.686 258.969H645.632C646.188 258.968 646.72 258.748 647.113 258.355C647.506 257.962 647.727 257.429 647.727 256.873V238.935C647.725 238.38 647.504 237.848 647.112 237.455C646.719 237.063 646.187 236.842 645.632 236.84V236.84Z" fill="#22F119"/>
<path d="M645.632 267.422H627.686C627.411 267.422 627.139 267.477 626.885 267.582C626.632 267.688 626.401 267.842 626.208 268.037C626.014 268.231 625.86 268.462 625.756 268.716C625.651 268.97 625.598 269.242 625.598 269.517V287.455C625.598 287.73 625.651 288.002 625.756 288.256C625.86 288.51 626.014 288.741 626.208 288.936C626.401 289.13 626.632 289.285 626.885 289.39C627.139 289.496 627.411 289.55 627.686 289.551H645.632C646.188 289.55 646.72 289.33 647.113 288.937C647.506 288.544 647.727 288.011 647.727 287.455V269.517C647.727 268.961 647.506 268.429 647.113 268.036C646.72 267.643 646.188 267.422 645.632 267.422V267.422Z" fill="#E6E6E6"/>
<path d="M683.314 145.094H665.367C664.813 145.095 664.282 145.317 663.891 145.71C663.499 146.102 663.28 146.634 663.28 147.189V165.135C663.28 165.688 663.5 166.219 663.891 166.611C664.283 167.002 664.814 167.222 665.367 167.222H683.314C683.868 167.222 684.4 167.003 684.792 166.612C685.185 166.22 685.407 165.689 685.409 165.135V147.189C685.407 146.633 685.186 146.101 684.793 145.709C684.401 145.316 683.869 145.095 683.314 145.094V145.094Z" fill="#E6E6E6"/>
<path d="M683.314 175.676H665.367C664.813 175.677 664.282 175.899 663.891 176.292C663.499 176.685 663.28 177.216 663.28 177.771V195.717C663.28 196.271 663.5 196.801 663.891 197.193C664.283 197.584 664.814 197.804 665.367 197.804H683.314C683.868 197.804 684.4 197.585 684.792 197.194C685.185 196.802 685.407 196.271 685.409 195.717V177.771C685.407 177.216 685.186 176.684 684.793 176.291C684.401 175.898 683.869 175.677 683.314 175.676V175.676Z" fill="#E6E6E6"/>
<path d="M683.314 206.258H665.367C664.813 206.26 664.282 206.481 663.891 206.874C663.499 207.267 663.28 207.799 663.28 208.353V226.291C663.279 226.566 663.333 226.838 663.437 227.092C663.542 227.346 663.695 227.577 663.889 227.772C664.083 227.966 664.313 228.121 664.567 228.226C664.821 228.332 665.092 228.386 665.367 228.387H683.314C683.869 228.386 684.402 228.165 684.795 227.773C685.188 227.38 685.408 226.847 685.409 226.291V208.353C685.407 207.798 685.186 207.266 684.793 206.873C684.401 206.481 683.869 206.259 683.314 206.258V206.258Z" fill="#22F119"/>
<path d="M683.314 236.84H665.367C664.813 236.842 664.282 237.063 663.891 237.456C663.499 237.849 663.28 238.381 663.28 238.935V256.873C663.279 257.148 663.333 257.42 663.437 257.674C663.542 257.928 663.695 258.159 663.889 258.354C664.083 258.548 664.313 258.703 664.567 258.808C664.821 258.914 665.092 258.968 665.367 258.969H683.314C683.869 258.968 684.402 258.748 684.795 258.355C685.188 257.962 685.409 257.429 685.409 256.873V238.935C685.407 238.38 685.186 237.848 684.793 237.455C684.401 237.063 683.869 236.842 683.314 236.84V236.84Z" fill="#E6E6E6"/>
<path d="M683.314 267.422H665.367C665.092 267.422 664.821 267.477 664.567 267.582C664.313 267.688 664.083 267.842 663.889 268.037C663.695 268.231 663.542 268.462 663.437 268.716C663.333 268.97 663.279 269.242 663.28 269.517V287.455C663.279 287.73 663.333 288.002 663.437 288.256C663.542 288.51 663.695 288.741 663.889 288.936C664.083 289.13 664.313 289.285 664.567 289.39C664.821 289.496 665.092 289.55 665.367 289.551H683.314C683.869 289.55 684.402 289.33 684.795 288.937C685.188 288.544 685.408 288.011 685.409 287.455V269.517C685.408 268.961 685.188 268.429 684.795 268.036C684.402 267.643 683.869 267.422 683.314 267.422V267.422Z" fill="#E6E6E6"/>
<path d="M270.843 531.904H270.344L270.771 531.848L270.843 531.904Z" fill="#2F2E41"/>
<path d="M227.907 197.479C258.314 197.479 282.964 172.829 282.964 142.421C282.964 112.014 258.314 87.3638 227.907 87.3638C197.499 87.3638 172.849 112.014 172.849 142.421C172.849 172.829 197.499 197.479 227.907 197.479Z" fill="#FFB6B6"/>
<path d="M276.122 102.053C276.122 102.053 290.522 74.5248 258.842 72.0222C258.842 72.0222 231.834 47.5224 204.305 67.5432C204.305 67.5432 189.289 67.5432 181.078 84.5352C181.078 84.5352 169.268 80.0563 166.673 92.043C166.673 92.043 158.032 117.069 166.673 139.593C175.315 162.116 178.185 164.619 178.185 164.619C178.185 164.619 163.985 117.397 198.549 114.894C233.113 112.392 271.79 90.7918 274.671 118.32C277.551 145.849 281.886 152.632 281.886 152.632C281.886 152.632 309.244 113.315 276.122 102.053Z" fill="#2F2E41"/>
<path d="M370.328 278.108L370.151 279.042L368.16 289.551L354.405 362.239L353.591 366.518L351.882 375.568L349.545 387.913L344.364 415.272L342.881 423.113L342.325 426.054L342.131 427.086L340.592 435.201L340.125 437.651L336.37 465.477L333.09 489.725L344.065 500.7L337.522 507.244L333.227 531.847L333.235 531.903H157.938C150.846 527.31 143.857 522.574 136.969 517.696L138.412 506.898C138.412 506.898 143.376 487.613 141.288 485.309C139.21 483.004 134.648 478.886 134.648 478.886L140.394 465.477L141.192 463.615L139.854 435.87L139.822 435.201L139.379 426.054L139.322 424.878L139.234 423.113L137.533 387.913L137.501 387.333L136.985 376.663L136.502 366.518L136.292 362.239L134.221 319.424L132.819 290.349L131.594 265.037L136.518 263.369L189.181 245.471L210.995 217.113L256.397 217.451L278.622 217.62L315.708 252.014L324.145 256.043L324.209 256.076L330.261 258.969L345.605 266.294L361.827 274.046L370.151 278.019L370.328 278.108Z" fill="#CACACA"/>
<path d="M216.863 449.305C213.536 450.593 209.966 451.137 206.406 450.898C202.846 450.658 199.382 449.64 196.258 447.917C193.134 446.194 190.426 443.806 188.324 440.923C186.222 438.04 184.778 434.731 184.093 431.229L98.2227 419.046L128.074 385.28L205.042 402.025C211 401.265 217.031 402.717 221.991 406.107C226.951 409.496 230.495 414.587 231.952 420.414C233.409 426.242 232.678 432.402 229.897 437.727C227.116 443.051 222.478 447.171 216.863 449.305V449.305Z" fill="#FFB6B6"/>
<path d="M178.575 387.913C176.985 385.897 174.733 384.507 172.217 383.989L136.985 376.664L133.367 375.914C131.264 375.475 129.278 374.597 127.538 373.338C125.798 372.078 124.343 370.465 123.27 368.605C122.156 366.652 121.482 364.479 121.295 362.239C121.127 360.202 121.371 358.152 122.013 356.211L134.221 319.424L142.143 295.555C143.103 292.676 143.669 289.68 143.827 286.65C144.268 278.263 141.674 269.998 136.518 263.369C131.985 257.542 125.699 253.327 118.587 251.348C111.474 249.369 103.914 249.729 97.0231 252.377C96.8216 252.449 96.6121 252.53 96.4106 252.611C91.4686 254.584 87.0532 257.68 83.5133 261.653C79.9735 265.626 77.4063 270.369 76.0145 275.505L67.408 306.812L49.655 371.353C47.8779 377.82 47.5189 384.594 48.6025 391.212C49.6862 397.83 52.187 404.135 55.9337 409.697C59.6804 415.259 64.5846 419.946 70.3106 423.437C76.0366 426.927 82.4493 429.14 89.1096 429.922L139.854 435.87L163.337 438.626C166.052 438.952 168.791 438.243 171.007 436.641C173.223 435.038 174.755 432.66 175.296 429.979C175.334 429.833 175.363 429.685 175.384 429.536L175.948 426.054L180.727 396.737L180.775 396.439C181.024 394.943 180.957 393.412 180.578 391.943C180.199 390.475 179.517 389.102 178.575 387.913Z" fill="#CACACA"/>
<path d="M271.558 450.244C275.034 451.051 278.644 451.086 282.135 450.347C285.625 449.607 288.911 448.112 291.761 445.965C294.611 443.818 296.956 441.073 298.63 437.922C300.304 434.771 301.267 431.292 301.451 427.728L384.746 403.558L350.431 374.338L276.594 401.77C270.588 401.858 264.822 404.146 260.389 408.201C255.957 412.256 253.166 417.795 252.545 423.77C251.925 429.746 253.517 435.741 257.022 440.62C260.526 445.499 265.698 448.924 271.558 450.244V450.244Z" fill="#FFB6B6"/>
<path d="M426.101 349.49L386.486 258.316C383.245 250.831 377.458 244.735 370.151 241.111C367.892 239.999 365.52 239.134 363.076 238.532C362.697 238.435 362.318 238.347 361.939 238.274C356.756 237.143 351.379 237.243 346.241 238.564C341.545 239.771 337.155 241.954 333.359 244.971C329.562 247.989 326.445 251.772 324.209 256.076C324.185 256.111 324.163 256.149 324.145 256.188C321.648 261.019 320.32 266.369 320.268 271.807C320.216 277.244 321.442 282.618 323.847 287.496L324.338 288.479L352.334 344.703C353.289 346.626 353.828 348.729 353.914 350.874C354 353.02 353.631 355.159 352.832 357.152C352.033 359.145 350.822 360.947 349.278 362.438C347.734 363.93 345.891 365.079 343.872 365.809L341.906 366.518L306.545 379.291C303.892 380.237 301.709 382.177 300.457 384.7C299.205 387.224 298.981 390.135 299.832 392.821L299.921 393.103L309.833 424.821C309.881 424.966 309.929 425.111 309.986 425.256C310.073 425.53 310.181 425.797 310.308 426.054C311.362 428.417 313.224 430.326 315.559 431.438C317.895 432.551 320.55 432.793 323.049 432.122L342.131 427.086L346.024 426.054L395.302 413.04C401.786 411.326 407.823 408.232 413 403.969C418.177 399.705 422.371 394.374 425.296 388.338C428.221 382.303 429.808 375.707 429.946 369.002C430.085 362.297 428.774 355.641 426.101 349.49L426.101 349.49Z" fill="#CACACA"/>
<path d="M36.1812 426.054C47.6004 439.983 59.9158 453.151 73.0489 465.477H437.271C440.78 465.482 444.143 466.879 446.624 469.361C449.104 471.843 450.499 475.208 450.503 478.717L451.026 571.011C473.433 560.717 494.416 547.572 513.456 531.903C518.742 527.56 523.865 523.028 528.823 518.309C532.071 515.23 535.241 512.077 538.333 508.848C561.512 484.701 580.282 456.679 593.791 426.054H36.1812Z" fill="#3F3D56"/>
<path d="M538.332 508.847C535.246 512.079 532.076 515.232 528.823 518.308H451.292V508.847H538.332Z" fill="white"/>
<path d="M369.603 206.258C369.22 205.551 368.653 204.961 367.962 204.549C367.271 204.138 366.482 203.921 365.678 203.921H101.487C100.303 203.924 99.1679 204.396 98.3311 205.235C97.4943 206.073 97.0239 207.209 97.0229 208.393V366.518H370.151V208.393C370.155 207.646 369.966 206.911 369.603 206.258V206.258Z" fill="#3F3D56"/>
<path d="M96.7837 362.237V381.749C96.7837 382.558 96.943 383.359 97.2526 384.107C97.5621 384.854 98.0158 385.533 98.5878 386.105C99.1598 386.677 99.8389 387.131 100.586 387.44C101.334 387.75 102.135 387.909 102.943 387.909H203.753V426.418H202.414C202.309 426.418 202.205 426.439 202.108 426.479C202.011 426.519 201.922 426.578 201.848 426.653C201.774 426.727 201.715 426.815 201.675 426.912C201.634 427.009 201.614 427.113 201.614 427.218V429.897C201.614 430.002 201.634 430.106 201.675 430.203C201.715 430.3 201.774 430.388 201.848 430.463C201.922 430.537 202.011 430.596 202.108 430.636C202.205 430.676 202.309 430.697 202.414 430.697H264.995C265.1 430.697 265.204 430.676 265.301 430.636C265.398 430.596 265.487 430.537 265.561 430.463C265.635 430.388 265.694 430.3 265.734 430.203C265.775 430.106 265.795 430.002 265.795 429.897V427.218C265.795 427.113 265.775 427.009 265.734 426.912C265.694 426.815 265.635 426.727 265.561 426.653C265.487 426.578 265.398 426.519 265.301 426.479C265.204 426.439 265.1 426.418 264.995 426.418H263.656V387.909H364.466C365.275 387.909 366.076 387.75 366.823 387.44C367.57 387.131 368.249 386.677 368.821 386.105C369.393 385.533 369.847 384.854 370.156 384.107C370.466 383.359 370.625 382.558 370.625 381.749V362.237H96.7837Z" fill="#3F3D56"/>
<path d="M230.396 306.232C244.329 306.232 255.624 294.937 255.624 281.004C255.624 267.071 244.329 255.776 230.396 255.776C216.463 255.776 205.167 267.071 205.167 281.004C205.167 294.937 216.463 306.232 230.396 306.232Z" fill="#22F119"/>
<path d="M294.674 139.412H290.645C290.645 108.951 260.498 88.9896 230.085 88.9735C225.662 88.9606 221.248 89.3898 216.91 90.2548C212.026 91.2299 206.957 92.3984 201.977 93.9214C182.338 99.9412 164.126 111.578 164.126 139.412C164.122 144.817 164.81 150.201 166.173 155.432L162.273 156.448C160.826 150.885 160.095 145.16 160.097 139.412C160.097 115.091 170.081 98.3859 187.327 88.4255C196.393 83.1875 207.457 79.8109 220.133 78.167C225.408 77.4652 230.741 77.3032 236.049 77.6835C271.023 80.1977 294.674 107.017 294.674 139.412Z" fill="#22F119"/>
<path d="M301.387 141.645L299.8 129.911C299.408 126.948 297.981 124.219 295.77 122.207C294.351 120.896 292.653 119.924 290.803 119.366C288.953 118.807 287 118.677 285.093 118.984L282.571 119.33C281.88 119.421 281.215 119.648 280.613 119.998C280.012 120.348 279.485 120.814 279.065 121.369C278.641 121.922 278.331 122.554 278.153 123.228C277.974 123.901 277.931 124.603 278.025 125.294L281.692 152.322C281.843 153.424 282.337 154.45 283.103 155.255C283.87 156.061 284.87 156.605 285.963 156.811C286.287 156.876 286.616 156.908 286.946 156.907C287.183 156.907 287.42 156.891 287.655 156.859L290.476 156.48C292.196 156.252 293.85 155.675 295.339 154.784C296.827 153.893 298.118 152.707 299.131 151.299C299.348 150.992 299.558 150.678 299.751 150.356C301.262 147.719 301.838 144.65 301.387 141.645Z" fill="#22F119"/>
<path d="M280.943 119.822C280.203 120.182 279.559 120.712 279.065 121.37C278.641 121.923 278.331 122.554 278.153 123.228C277.974 123.901 277.931 124.604 278.025 125.294L281.692 152.322C281.843 153.424 282.337 154.45 283.103 155.256C283.87 156.061 284.87 156.605 285.963 156.811L280.943 119.822Z" fill="white"/>
<path d="M301.387 141.644L299.8 129.911C299.408 126.948 297.981 124.219 295.771 122.207L299.421 149.099C299.476 149.53 299.587 149.953 299.751 150.356C301.262 147.719 301.838 144.65 301.387 141.644V141.644Z" fill="#3F3D56"/>
<path d="M288.841 150.098C289.943 149.949 290.497 147.325 290.079 144.238C289.66 141.151 288.427 138.769 287.324 138.919C286.221 139.068 285.667 141.692 286.086 144.779C286.505 147.867 287.738 150.248 288.841 150.098Z" fill="#3F3D56"/>
<path d="M286.423 135.593C287.525 135.443 288.08 132.819 287.661 129.732C287.242 126.645 286.009 124.263 284.906 124.413C283.804 124.563 283.249 127.186 283.668 130.274C284.087 133.361 285.32 135.742 286.423 135.593Z" fill="#3F3D56"/>
<path d="M301.734 141.234C302.837 141.085 303.391 138.461 302.972 135.374C302.554 132.286 301.32 129.905 300.218 130.055C299.115 130.204 298.561 132.828 298.98 135.915C299.399 139.002 300.632 141.384 301.734 141.234Z" fill="#3F3D56"/>
<path d="M230.085 88.9735C225.662 88.9606 221.248 89.3898 216.91 90.2548C212.026 91.2299 206.957 92.3984 201.977 93.9214C194.201 93.5427 188.479 91.5281 187.327 88.4255C196.393 83.1875 207.457 79.8109 220.133 78.167C225.408 77.4652 230.741 77.3032 236.049 77.6835C236.611 78.0129 237.097 78.4575 237.474 78.988C237.852 79.5186 238.113 80.1231 238.241 80.7619C238.619 83.5663 235.42 86.5479 230.085 88.9735Z" fill="#3F3D56"/>
<path d="M178.64 167.375L172.435 141.58C172.214 140.649 171.722 139.805 171.023 139.152C170.323 138.5 169.446 138.069 168.502 137.913C168.236 137.872 167.966 137.85 167.697 137.849C167.316 137.85 166.938 137.896 166.568 137.986L164.167 138.566C161.075 139.314 158.406 141.257 156.746 143.971C155.085 146.684 154.569 149.945 155.311 153.039L158.091 164.611C158.726 167.335 160.237 169.776 162.394 171.558C162.743 171.84 163.109 172.101 163.49 172.339C164.841 173.186 166.347 173.753 167.921 174.008C169.495 174.263 171.104 174.199 172.652 173.822L175.046 173.242C175.679 173.094 176.274 172.817 176.795 172.428C177.569 171.864 178.157 171.082 178.486 170.182C178.814 169.282 178.868 168.305 178.64 167.375Z" fill="#22F119"/>
<path d="M165.631 162.576C166.713 162.316 166.999 159.649 166.27 156.62C165.542 153.591 164.074 151.347 162.992 151.607C161.91 151.868 161.624 154.534 162.353 157.563C163.082 160.592 164.55 162.836 165.631 162.576Z" fill="#3F3D56"/>
<path d="M157.573 164.993C158.655 164.733 158.941 162.067 158.212 159.038C157.483 156.009 156.015 153.764 154.933 154.024C153.852 154.285 153.565 156.951 154.294 159.98C155.023 163.009 156.491 165.254 157.573 164.993Z" fill="#3F3D56"/>
<path d="M179.035 167.278L172.83 141.483C172.588 140.476 172.055 139.563 171.296 138.858C170.538 138.152 169.589 137.687 168.567 137.518L177.036 172.75C177.873 172.138 178.509 171.291 178.865 170.317C179.22 169.343 179.28 168.286 179.035 167.278V167.278Z" fill="white"/>
<path d="M156.713 147.93C156.541 147.213 156.22 146.54 155.77 145.956C154.897 148.215 154.737 150.687 155.31 153.04L158.091 164.612C158.725 167.336 160.237 169.776 162.394 171.558L156.713 147.93Z" fill="#3F3D56"/>
</g>
<defs>
<clipPath id="clip0_923_1554">
<rect width="685.409" height="597" fill="white"/>
</clipPath>
</defs>
</svg>
